Patient4_TMGait_0pt3_01_right_28_EMG.mot
version=1
nRows=36
nColumns=33
inDegrees=no
endheader
time	1LAddLong	2LGlutMax	3LGlutMed	4LIliopsoas	5LSemiMemb	6LBicFemLong	7LRecFem	8LVastMed	9LVastLat	10LGasMed	11LTibAnt	12lTibPost	13LPeroneusLong	14LSol	15LExtDigLong	16LFlexDigLong	17RAddLong	18RGlutMax	19RGlutMed	20RIliopsoas	21RSemiMemb	22RBicFemLong	23RRecFem	24RVastMed	25RVastLat	26RGasMed	27RTibAnt	28RTibPost	29RPeroneusLong	30RSol	31RExtDigLong	32RFlexDigLong
53.943	0.019531	-0.23422	0.004425	-0.005493	0.061798	0.35797	0.053253	0.010986	-0.1062	0.036926	0.007324	-0.063477	0.000458	0.86441	0.020599	-0.32913	0.020599	-0.013428	-0.039063	0.035858	0.001068	-0.037231	0.026703	-0.065918	-0.013428	-0.011749	-0.077209	-0.006256	0.24933	-0.076141	0	-0.007172
53.944	0.026855	-0.21469	-0.035706	-0.016479	0.029602	0.23529	0.035706	0.019379	-0.11765	-0.015106	0.006104	-0.13138	0.13245	1.2497	0.030518	0.033722	0.015717	-0.046234	-0.039063	0.097656	0.009918	-0.032043	0.012817	-0.027008	-0.013275	-0.00946	-0.26825	-0.005646	0.18738	0.16434	-0.001831	-0.006256
53.945	0.031738	-0.24033	-0.034485	-0.002136	0.021057	0.02182	0.04715	0.00946	0.012512	0.079956	-0.010681	-0.050201	0.19379	1.0298	-0.00824	-0.029449	0.014496	-0.044556	-0.087128	0.12878	0.007324	-0.02533	0.016479	-0.03418	-0.02533	-0.00824	-0.12009	-0.00473	0.17425	0.13657	-0.00061	-0.002441
53.946	0.035706	-0.23972	0.15305	-0.010071	0.04715	-0.33371	0.023499	0.013885	0.10925	0.10178	0.007172	0.36362	0.29159	-0.026093	-0.027313	-0.015411	0.001984	0.001373	-0.071259	0.11505	0.012817	-0.01709	0.048218	-0.010071	-0.003052	-0.009766	-0.006256	-0.005035	0.051422	-0.030365	0.000153	-0.002747
53.947	0.014801	-0.23697	0.050201	-0.00946	0.054779	-0.19379	0.010529	0.016327	0.11841	0.1178	0.002289	0.057983	-0.044861	-0.4747	0.00412	-0.059357	0.005951	-0.036163	-0.071564	0.096893	0.016022	-0.025787	0.019073	-0.031586	-0.00473	0.001831	0.19348	-0.003662	-0.034943	-0.10178	0.000153	-0.007629
53.948	-0.000458	-0.22263	-0.054932	-0.011597	0.037842	-0.13534	0.022278	0.01297	0.064392	-0.11612	0	-0.016937	-0.021057	-0.58502	0.01236	0.04776	-0.009003	-0.074921	-0.21683	0.11505	0.016632	0.007172	0.025177	-0.008392	-0.005951	0.001068	0.11826	-0.003204	-0.13611	-0.19379	0.000763	-0.003967
53.949	-0.023804	-0.21454	-0.083466	0.000153	-0.020905	-0.055542	0.092468	0.006256	-0.11963	-0.19028	-0.00351	0.030518	0.2623	-0.05188	-0.036316	0.25024	-0.009003	-0.027771	-0.14053	0.067139	0.026703	0.007629	0.005035	0.014496	0.007172	0.003662	-0.027161	-0.002136	-0.19653	-0.22308	-0.000458	-0.016174
53.95	-0.027161	-0.18143	-0.080109	0.000305	-0.049591	0.038452	0.11673	-0.003815	-0.26184	-0.12924	0.003204	-0.000153	0.28442	-0.49133	-0.017242	-0.024567	-0.009918	-0.016632	0.000153	0.025177	0.011292	-0.005493	0.019073	-0.019989	0.015869	0.006866	-0.068359	-0.001526	0.25742	-0.15015	-0.000305	-0.016174
53.951	-0.024261	-0.1445	-0.028076	0.008545	-0.005341	0.14145	0.11932	0.004883	-0.23163	-0.04425	0.008392	-0.2153	0.018311	-0.19684	-0.003204	-0.025482	0.009308	0.048065	0.41031	-0.006866	0.019073	0.000458	0.021667	-0.016632	0.011902	0.009918	0.012207	-0.002594	0.39093	-0.02182	0.001373	-0.014038
53.952	-0.020599	-0.12344	-0.049591	-0.006104	0.034637	0.15411	0.12161	0.01358	-0.1001	-0.05661	-0.011749	-0.74387	0.13428	-0.28046	-0.055237	0.033875	0.001526	0.015564	0.41687	-0.018005	0.02121	0.007782	0.007324	-0.036316	-0.00061	0.001678	0.034637	-0.007629	0.14526	0.007935	-0.000458	-0.015564
53.953	-0.026398	-0.082245	-0.016479	0.000305	0.013428	0.072937	0.12528	0.015869	-0.097809	0.19394	0.011444	0.26657	-0.54245	-0.18829	-0.015411	-0.020142	-0.00412	0.004272	0.26077	0.0177	0.0177	-0.002594	-0.003052	-0.02243	-0.004272	-0.000153	0.033112	-0.00412	0.17303	-0.061188	-0.000916	-0.013123
53.954	-0.021515	-0.032654	0.21301	0.00412	-0.008087	-0.24582	0.038757	0.006104	-0.10666	0.15823	-0.005341	0.84473	-0.38681	0.30594	0.054016	-0.045776	-0.005035	-0.063934	-0.083466	0.030212	0.014343	0.015564	-0.05249	-0.027618	0.013733	-0.005341	0.33646	-0.001984	0.11292	-0.008087	-0.001221	-0.019379
53.955	-0.001678	-0.013885	0.1236	0.01358	0.001373	-0.3212	-0.13046	0.015717	0.000305	0.17029	0.001831	0.25909	-0.23804	0.85877	0.039368	-0.004883	0.008087	-0.028076	-0.40298	0.019379	0.017395	-0.001373	0.003357	-0.042725	0.017242	-0.007477	0.23346	-0.012512	0.089722	0.068665	-0.001984	-0.015564
53.956	0.014343	-0.043182	0.076294	0.002747	0.008698	-0.15762	-0.24094	0.001526	0.042877	0.13794	-0.014648	-0.003052	0.17868	0.94177	0.034485	0.094452	0.008698	-0.003967	-0.35095	0.023041	0.016327	-0.01358	-0.019226	-0.030823	0.020447	-0.0177	0.15106	-0.003815	0.041504	0.078735	0.002594	-0.019379
53.957	0.026245	-0.027924	0.070953	-0.005493	0.01358	-0.1857	-0.22583	-0.005035	0.097809	0.1152	0.004272	0.021667	-0.03479	0.3627	-0.001678	0.061951	-0.016785	-0.061951	-0.26962	-0.03067	0.001831	0.002747	0.007629	-0.031738	0.017395	-0.014648	0.056915	-0.003204	0.007019	0.045013	0.003204	-0.001221
53.958	0.025024	-0.033417	-0.00412	0.005951	0.028839	-0.1889	-0.15793	0.001221	0.18921	0.010376	0.00946	-0.041504	0.3157	-0.26932	-0.034637	-0.010529	-0.023804	-0.13443	-0.29312	0.005035	-0.006409	-0.004272	0.008545	-0.040588	0.003815	-0.016479	-0.058594	-0.009613	-0.084839	-0.031586	0.000153	-0.011597
53.959	0.048218	-0.061493	0.077209	0.019836	0.067139	-0.091553	-0.04425	-0.007935	0.13412	-0.084839	0.032959	0.037537	-0.047455	-0.77988	-0.085297	-0.049896	-0.0383	-0.1326	-0.21194	0.10178	-0.005493	0.013123	-0.001373	-0.057831	0.009766	-0.020599	0.05188	-0.000916	-0.081177	-0.042877	-0.00473	-0.001526
53.96	0.050659	-0.088654	0.076599	0.029602	0.035095	0.001831	0.016785	-0.016937	-0.003052	-0.13794	0.01709	0.040436	-0.092773	-0.72815	-0.021515	-0.030823	-0.046997	-0.11108	-0.14328	0.10193	-0.009003	0.013885	0.011292	-0.064697	0.017548	-0.022736	0.24796	-0.00351	-0.069122	0.030823	-0.001678	-0.010834
53.961	0.037384	-0.12787	0.065308	0.005035	0.029755	-0.007477	-0.001068	-0.013885	-0.064087	-0.063019	-0.002747	-0.008392	0.18631	-0.47531	-0.023804	0.02243	-0.020142	-0.11795	0.15167	0.089569	-0.002899	0.017548	0.004425	-0.040741	0.010529	-0.00885	0.61035	-0.001526	-0.002899	0.054169	-0.001526	0
53.962	0.043945	-0.18768	-0.068359	-0.012512	0.024719	-0.016937	-0.003815	-0.002594	-0.013123	-0.030212	-0.008087	-0.040741	-0.005035	-0.35812	-0.030518	-0.036163	-0.012054	-0.13473	0.13992	0.028381	-0.010681	0.00824	-0.006256	-0.009003	0.035858	-0.003815	0.29205	-0.002899	0.10101	-0.044403	-0.006714	-0.00061
53.963	0.036163	-0.19089	-0.088043	-0.007324	0.015259	0.016632	-0.010986	0.019989	0.029602	-0.071259	-0.023193	-0.045471	-0.15488	-0.35706	0.006714	-0.042877	0.02655	-0.10712	-0.051117	-0.036011	-0.006561	0.011444	-0.028992	-0.000458	0.019531	0.001984	0.10971	-0.001373	0.071259	-0.18539	0.001678	0.002289
53.964	0.022888	-0.16586	-0.079041	0.010529	0.025787	0.056	-0.045929	0.027466	0.07019	-0.059662	-0.005188	-0.019379	0.049133	-0.32455	-0.013733	-0.020752	0.06424	-0.10513	-0.023956	-0.020294	0.001678	0.013123	0.006256	-0.000458	0.016785	0.003662	-0.070496	-0.004272	0.026398	-0.15289	-0.001678	-0.001984
53.965	0.008087	-0.13184	-0.052795	0.01297	0.002747	0.080566	-0.045776	0.034027	0.070801	-0.054626	0.001984	-0.001831	0.15167	-0.24872	-0.015564	-0.013885	0.10819	-0.12863	0.14236	-0.046234	0.018463	0.051422	0.010681	0.01297	0.032043	0.005341	-0.4129	-0.004425	0.14633	-0.10681	0.000763	-0.009308
53.966	-0.001221	-0.083618	0.087585	-0.015259	-0.030975	0.089722	0.006714	0.017395	0.038452	-0.046997	0.005646	-0.019836	0.082703	-0.14282	0.04715	-0.011749	0.1181	-0.080414	0.58365	-0.05249	0.022278	0.032501	-0.008087	0.023193	0.021362	0.009613	-0.69153	-0.002899	0.21713	-0.091705	0.00351	-0.006561
53.967	0.009003	-0.064392	0.08667	-0.014038	-0.06546	0.031738	-0.03067	0.011139	0.032654	-0.028229	0.001678	-0.026398	0.034485	-0.1059	0.052185	0.011139	0.1062	-0.1326	0.12222	-0.025177	0.015717	0.036621	-0.004272	0.013275	0.029602	0.003052	-0.21927	-0.006866	0.033112	-0.006104	-0.004272	-0.008545
53.968	0.016174	-0.032043	0.081482	-0.009613	-0.054626	-0.003052	-0.038452	-0.024109	0.06897	-0.041504	0.002899	-0.017853	0.034027	-0.16632	0.031586	-0.001068	0.080719	-0.14008	-0.17639	0.028381	0.018768	-0.005035	0.053253	0.013275	0.009766	-0.005341	-0.057068	0.001984	-0.09491	0.097198	-0.001221	-0.024872
53.969	0.018005	0.005646	0.028992	-0.012207	0.02182	-0.035858	0.00946	-0.020752	0.078888	-0.039978	0.002441	-0.007935	0.061493	-0.18555	0.026398	-0.017548	0.04364	-0.15289	-0.20798	-0.005341	0.032806	0.002136	0.009613	0.010223	0.007629	-0.002747	-0.11337	-0.003357	-0.022278	0.14511	-0.001526	-0.015869
53.97	0.0177	0.065918	-0.006866	-0.014954	0.064697	-0.005341	0.029602	0.006256	0.037384	-0.032654	-0.004425	-0.015106	0.0383	-0.1326	0.036316	-0.015259	0.002441	-0.094757	-0.15488	-0.079193	0.043488	0.01297	-0.016937	-0.005951	0.015564	-0.003662	-0.24597	-0.009003	0.022278	0.14252	-0.00061	-0.018768
53.971	0.004883	0.052032	-0.076294	-0.000305	0.046844	0.0737	0.088043	0.013428	-0.08667	-0.002441	0.011749	-0.016174	0.36697	-0.072632	0.041046	-0.011292	-0.050964	-0.1088	-0.11734	-0.13184	-0.005798	0.013123	-0.007629	-0.025024	0.019836	-0.003052	-0.29511	-0.001831	-0.00412	0.077362	-0.001526	-0.014038
53.972	-0.007019	0.07309	-0.08316	0.023651	0.006104	0.13504	0.11093	0.009308	-0.088806	0.023193	0.01297	-0.004425	0.94284	-0.054626	0.050049	0.00473	-0.044098	-0.15945	-0.002289	-0.27527	0.014801	-0.000153	0.010223	-0.003967	0.009155	0.008545	-0.077057	-0.005035	0.005493	-0.031128	-0.006561	-0.009155
53.973	-0.009613	0.15961	0.016937	0.007629	-0.002899	0.2327	0.13046	0.005493	-0.009155	0.024872	-0.007172	-0.005798	0.30411	-0.003815	0.050507	0.008392	-0.061035	-0.12863	0.018921	-0.16342	0.032654	0.010376	-0.003815	-0.011902	0.014343	0	-0.168	-0.005341	0.025635	-0.047607	0.000916	-0.01236
53.974	0.000763	0.1442	0.15106	0.000458	-0.025482	0.24704	0.087433	0.00473	-0.0177	0.009003	0.001678	-0.005493	-0.67261	0.009155	0.020752	-0.003662	-0.046844	-0.10651	0.073853	-0.027466	0.024109	-0.011444	-0.010071	0.001373	0.032806	-0.001373	-0.14679	-0.001831	0.050354	-0.050049	0.001373	-0.010376
53.975	-0.016632	0.14526	0.11673	0.01236	-0.027313	0.30762	0.095215	0.005951	-0.058289	-0.028687	0.018005	0.000916	-0.69336	0.027008	-0.010376	-0.000916	-0.033264	-0.10086	0.093384	0.081635	0.023956	0.009155	-0.02182	0.038757	0.028687	-0.001373	-0.002594	-0.000916	0.06958	-0.088196	-0.003662	-0.006866
53.976	-0.023041	0.091858	-0.090332	-0.026855	-0.040894	0.31235	0.11108	0.011444	-0.034485	-0.01709	-0.015106	-0.001984	-0.31372	-0.027924	-0.045013	0.015869	-0.032349	-0.11688	-0.027161	0.26916	0.018005	-0.000153	-0.03006	0.01358	0.011444	-0.002594	0.019684	-0.00412	0.09491	-0.10849	-0.000916	-0.001221
53.977	-0.031281	0.066681	-0.075836	-0.016022	-0.034943	0.18692	0.11978	0.013733	-0.016785	0.001831	0.024872	-0.001068	-0.10956	-0.020905	-0.005188	-0.025482	-0.03006	-0.087128	0.21149	0.37811	0.016937	-0.005341	-0.009766	0.014191	0.005035	-0.001984	0.034027	-0.002899	0.041962	-0.028076	0.00351	-0.008698
53.978	-0.021057	-0.071106	-0.10559	-0.001678	-0.040131	0.014496	0.1326	0.025024	-0.027618	0.010071	-0.010529	0.001984	0.23025	0.079498	0.043182	0.003357	-0.019379	-0.065002	0.37491	0.24002	-0.007477	-0.005493	-0.019073	-0.010529	0.000458	-0.009766	0.031891	-0.002136	0.017548	0.032043	-0.00061	-0.001678
